<svg xmlns="http://www.w3.org/2000/svg" xmlns:xlink="http://www.w3.org/1999/xlink" width="28" height="28" viewBox="0 0 28 28">
    <defs>
        <circle id="a" cx="14" cy="14" r="14"/>
        <radialGradient id="b" cx="26.563%" cy="107.702%" r="99.107%" fx="26.563%" fy="107.702%">
            <stop offset="0%" stop-color="#FD5"/>
            <stop offset="10%" stop-color="#FD5"/>
            <stop offset="50%" stop-color="#FF543E"/>
            <stop offset="100%" stop-color="#C837AB"/>
        </radialGradient>
        <radialGradient id="d" cx="21.145%" cy="0%" r="54.394%" fx="21.145%" fy="0%">
            <stop offset="0%" stop-color="#3771C8"/>
            <stop offset="14.565%" stop-color="#3771C8"/>
            <stop offset="100%" stop-color="#60F" stop-opacity="0"/>
        </radialGradient>
    </defs>
    <g fill="none" fill-rule="evenodd">
        <path d="M0 0h28v28H0z"/>
        <g>
            <mask id="c" fill="#fff">
                <use xlink:href="#a"/>
            </mask>
            <use fill="#FFF" xlink:href="#a"/>
            <path fill="url(#b)" d="M14.005 0C8.16 0 6.45.006 6.118.034c-1.2.1-1.946.288-2.759.693A5.589 5.589 0 0 0 1.75 1.905C.862 2.827.324 3.962.13 5.311.034 5.966.007 6.099 0 9.444c-.002 1.115 0 2.582 0 4.55 0 5.842.006 7.55.034 7.882.097 1.168.28 1.902.668 2.706a5.898 5.898 0 0 0 3.822 3.123c.577.149 1.215.23 2.033.27.347.014 3.88.025 7.417.025 3.536 0 7.072-.004 7.41-.022.947-.044 1.497-.118 2.106-.275a5.862 5.862 0 0 0 3.822-3.13c.38-.784.573-1.547.66-2.653.019-.241.027-4.088.027-7.93 0-3.841-.009-7.68-.028-7.922-.088-1.124-.28-1.88-.673-2.68a5.55 5.55 0 0 0-1.198-1.642C25.174.862 24.04.323 22.692.128c-.654-.094-.784-.122-4.13-.128h-4.557z" mask="url(#c)"/>
            <path fill="url(#d)" d="M9.005-2c-5.037.004-7.665.015-7.887.034-1.2.1-1.946.288-2.759.693A5.589 5.589 0 0 0-3.25-.095c-.888.922-1.426 2.057-1.621 3.406-.095.655-.122.788-.128 4.133-.002 1.115 0 2.582 0 4.55 0 5.842.006 7.55.034 7.882.097 1.168.28 1.902.668 2.706a5.898 5.898 0 0 0 3.822 3.123c.577.149 1.215.23 2.033.27.347.014 3.88.025 7.417.025 3.536 0 7.072-.004 7.41-.022.947-.044 1.497-.118 2.106-.275a5.862 5.862 0 0 0 3.822-3.13c.38-.784.573-1.547.66-2.653.019-.241.027-4.088.027-7.93 0-3.841-.009-7.68-.028-7.922-.088-1.124-.28-1.88-.673-2.68a5.55 5.55 0 0 0-1.198-1.642c-.927-.884-2.06-1.423-3.409-1.618-.654-.094-.784-.122-4.13-.128H9.004z" mask="url(#c)"/>
        </g>
        <path fill="#FFF" d="M14 8.261c1.87 0 2.09.007 2.829.041.682.031 1.053.145 1.3.241.326.127.56.279.804.524.245.245.397.478.524.805.096.246.21.617.24 1.3.035.738.042.959.042 2.828 0 1.87-.007 2.09-.041 2.829-.031.682-.145 1.053-.241 1.3-.127.326-.279.56-.524.804a2.169 2.169 0 0 1-.805.524c-.246.096-.617.21-1.3.241-.737.034-.959.04-2.828.04-1.87 0-2.09-.006-2.829-.04-.682-.031-1.053-.145-1.3-.241a2.169 2.169 0 0 1-.804-.524 2.169 2.169 0 0 1-.524-.805c-.096-.246-.21-.617-.241-1.3-.034-.738-.04-.959-.04-2.828 0-1.87.006-2.09.04-2.829.031-.682.145-1.053.241-1.3.127-.326.279-.56.524-.804.245-.245.478-.397.805-.524.246-.096.617-.21 1.3-.24.738-.035.959-.042 2.828-.042M14 7c1.901 0 2.14.008 2.886.042.745.034 1.254.152 1.7.326.46.178.85.418 1.24.807.388.389.628.78.806 1.24.174.445.292.954.326 1.699.034.747.042.985.042 2.886 0 1.901-.008 2.14-.042 2.886-.034.745-.152 1.254-.326 1.7-.178.46-.418.85-.807 1.24-.389.388-.78.628-1.24.807-.445.173-.954.29-1.699.325-.747.034-.985.042-2.886.042-1.901 0-2.14-.008-2.886-.042-.745-.034-1.254-.152-1.7-.325a3.431 3.431 0 0 1-1.24-.808c-.388-.389-.628-.78-.807-1.24-.173-.445-.29-.954-.325-1.699C7.008 16.14 7 15.901 7 14c0-1.901.008-2.14.042-2.886.034-.745.152-1.254.325-1.7.18-.46.419-.85.808-1.24.389-.388.78-.628 1.24-.806.445-.174.954-.292 1.699-.326C11.86 7.008 12.099 7 14 7zm.014 3.417a3.597 3.597 0 1 0 0 7.194 3.597 3.597 0 0 0 0-7.194zm0 5.932a2.335 2.335 0 1 1 0-4.67 2.335 2.335 0 0 1 0 4.67zm4.542-6.099a.833.833 0 1 0-1.667 0 .833.833 0 0 0 1.667 0z"/>
    </g>
</svg>
