<svg xmlns="http://www.w3.org/2000/svg" width="28" height="28" viewBox="0 0 28 28">
    <g fill="none" fill-rule="evenodd">
        <path d="M0 0h28v28H0z"/>
        <circle cx="14" cy="14" r="14" fill="#B50A1A"/>
        <path fill="#FFF" d="M8.91 12.023c0 1.384.522 2.614 1.643 3.073.184.075.349.002.402-.202.037-.14.125-.497.164-.645.053-.202.033-.272-.116-.448-.323-.382-.53-.877-.53-1.577 0-2.032 1.518-3.852 3.953-3.852 2.155 0 3.34 1.32 3.34 3.082 0 2.319-1.025 4.276-2.545 4.276-.84 0-1.469-.696-1.267-1.55.24-1.018.708-2.118.708-2.853 0-.658-.353-1.207-1.082-1.207-.858 0-1.549.89-1.549 2.081 0 .76.257 1.272.257 1.272l-1.033 4.383c-.306 1.3-.046 2.895-.024 3.055.013.096.135.119.19.047.08-.104 1.102-1.369 1.45-2.632.098-.358.565-2.21.565-2.21.279.533 1.094 1.002 1.96 1.002 2.58 0 4.331-2.357 4.331-5.511C19.727 9.22 17.711 7 14.646 7c-3.814 0-5.737 2.74-5.737 5.023z"/>
    </g>
</svg>
